<?xml version="1.0" encoding="utf-8"?>
<!-- created with bpmn-js / http://bpmn.io -->
<!DOCTYPE svg PUBLIC "-//W3C//DTD SVG 1.1//EN" "http://www.w3.org/Graphics/SVG/1.1/DTD/svg11.dtd">
<svg xmlns="http://www.w3.org/2000/svg" xmlns:xlink="http://www.w3.org/1999/xlink" width="1444" height="1062" viewBox="152 74 1444 1062" version="1.1"><defs><marker id="sequenceflow-end-white-black-9261oujydjd5xoo52fz3alyfh" viewBox="0 0 20 20" refX="11" refY="10" markerWidth="10" markerHeight="10" orient="auto"><path d="M 1 5 L 11 10 L 1 15 Z" style="fill: black; stroke-width: 1px; stroke-linecap: round; stroke-dasharray: 10000, 1; stroke: black;"/></marker><marker id="messageflow-end-white-black-9261oujydjd5xoo52fz3alyfh" viewBox="0 0 20 20" refX="8.5" refY="5" markerWidth="20" markerHeight="20" orient="auto"><path d="m 1 5 l 0 -3 l 7 3 l -7 3 z" style="fill: white; stroke-width: 1px; stroke-linecap: butt; stroke-dasharray: 10000, 1; stroke: black;"/></marker><marker id="messageflow-start-white-black-9261oujydjd5xoo52fz3alyfh" viewBox="0 0 20 20" refX="6" refY="6" markerWidth="20" markerHeight="20" orient="auto"><circle cx="6" cy="6" r="3.5" style="fill: white; stroke-width: 1px; stroke-linecap: round; stroke-dasharray: 10000, 1; stroke: black;"/></marker><marker id="association-end-white-black-9261oujydjd5xoo52fz3alyfh" viewBox="0 0 20 20" refX="12" refY="10" markerWidth="10" markerHeight="10" orient="auto"><path d="M 1 5 L 11 10 L 1 15" style="fill: none; stroke-width: 1.5px; stroke-linecap: round; stroke-dasharray: 10000, 1; stroke: black;"/></marker></defs><g class="djs-group"><g class="djs-element djs-shape" data-element-id="Participant_1ke287o" style="display: block;" transform="matrix(1 0 0 1 158 490)"><g class="djs-visual"><rect x="0" y="0" width="1304" height="350" rx="0" ry="0" style="stroke: black; stroke-width: 2px; fill: white; fill-opacity: 0.95;"/><polyline points="30,0 30,350 " style="fill: none; stroke: black; stroke-width: 2px;"/><text lineHeight="1.2" class="djs-label" style="font-family: Arial, sans-serif; font-size: 12px; font-weight: normal; fill: black;" transform="matrix(-1.83697e-16 -1 1 -1.83697e-16 0 350)"><tspan x="113.9609375" y="18.6">Marketingové oddělení</tspan></text></g><rect class="djs-hit djs-hit-click-stroke" x="0" y="0" width="1304" height="350" style="fill: none; stroke-opacity: 0; stroke: white; stroke-width: 15px;"/><rect class="djs-hit djs-hit-all" x="0" y="0" width="30" height="350" style="fill: none; stroke-opacity: 0; stroke: white; stroke-width: 15px;"/><rect x="-6" y="-6" width="1316" height="362" class="djs-outline" style="fill: none;"/></g><g class="djs-children"><g class="djs-group"><g class="djs-element djs-connection" data-element-id="Flow_10ip2id" style="display: block;"><g class="djs-visual"><path d="m  1070,550L1230,550 L1230,652 " style="fill: none; stroke-width: 2px; stroke: black; stroke-linejoin: round; marker-end: url('#sequenceflow-end-white-black-9261oujydjd5xoo52fz3alyfh');"/></g><polyline points="1070,550 1230,550 1230,652 " class="djs-hit djs-hit-stroke" style="fill: none; stroke-opacity: 0; stroke: white; stroke-width: 15px;"/><rect x="1064" y="544" width="172" height="114" class="djs-outline" style="fill: none;"/></g></g><g class="djs-group"><g class="djs-element djs-connection" data-element-id="Flow_0hr88nr" style="display: block;"><g class="djs-visual"><path d="m  770,550L970,550 " style="fill: none; stroke-width: 2px; stroke: black; stroke-linejoin: round; marker-end: url('#sequenceflow-end-white-black-9261oujydjd5xoo52fz3alyfh');"/></g><polyline points="770,550 970,550 " class="djs-hit djs-hit-stroke" style="fill: none; stroke-opacity: 0; stroke: white; stroke-width: 15px;"/><rect x="764" y="544" width="212" height="12" class="djs-outline" style="fill: none;"/></g></g><g class="djs-group"><g class="djs-element djs-connection" data-element-id="Flow_06oedm3" style="display: block;"><g class="djs-visual"><path d="m  770,780L1230,780 L1230,688 " style="fill: none; stroke-width: 2px; stroke: black; stroke-linejoin: round; marker-end: url('#sequenceflow-end-white-black-9261oujydjd5xoo52fz3alyfh');"/></g><polyline points="770,780 1230,780 1230,688 " class="djs-hit djs-hit-stroke" style="fill: none; stroke-opacity: 0; stroke: white; stroke-width: 15px;"/><rect x="764" y="682" width="472" height="104" class="djs-outline" style="fill: none;"/></g></g><g class="djs-group"><g class="djs-element djs-connection" data-element-id="Flow_0bkwwe5" style="display: block;"><g class="djs-visual"><path d="m  580,695L580,780 L670,780 " style="fill: none; stroke-width: 2px; stroke: black; stroke-linejoin: round; marker-end: url('#sequenceflow-end-white-black-9261oujydjd5xoo52fz3alyfh');"/></g><polyline points="580,695 580,780 670,780 " class="djs-hit djs-hit-stroke" style="fill: none; stroke-opacity: 0; stroke: white; stroke-width: 15px;"/><rect x="574" y="689" width="102" height="97" class="djs-outline" style="fill: none;"/></g></g><g class="djs-group"><g class="djs-element djs-connection" data-element-id="Flow_0xu0il5" style="display: block;"><g class="djs-visual"><path d="m  580,645L580,550 L670,550 " style="fill: none; stroke-width: 2px; stroke: black; stroke-linejoin: round; marker-end: url('#sequenceflow-end-white-black-9261oujydjd5xoo52fz3alyfh');"/></g><polyline points="580,645 580,550 670,550 " class="djs-hit djs-hit-stroke" style="fill: none; stroke-opacity: 0; stroke: white; stroke-width: 15px;"/><rect x="574" y="544" width="102" height="107" class="djs-outline" style="fill: none;"/></g></g><g class="djs-group"><g class="djs-element djs-connection" data-element-id="Flow_1rsccu1" style="display: block;"><g class="djs-visual"><path d="m  450,670L555,670 " style="fill: none; stroke-width: 2px; stroke: black; stroke-linejoin: round; marker-end: url('#sequenceflow-end-white-black-9261oujydjd5xoo52fz3alyfh');"/></g><polyline points="450,670 555,670 " class="djs-hit djs-hit-stroke" style="fill: none; stroke-opacity: 0; stroke: white; stroke-width: 15px;"/><rect x="444" y="664" width="117" height="12" class="djs-outline" style="fill: none;"/></g></g><g class="djs-group"><g class="djs-element djs-connection" data-element-id="Flow_16e9tai" style="display: block;"><g class="djs-visual"><path d="m  248,670L350,670 " style="fill: none; stroke-width: 2px; stroke: black; stroke-linejoin: round; marker-end: url('#sequenceflow-end-white-black-9261oujydjd5xoo52fz3alyfh');"/></g><polyline points="248,670 350,670 " class="djs-hit djs-hit-stroke" style="fill: none; stroke-opacity: 0; stroke: white; stroke-width: 15px;"/><rect x="242" y="664" width="114" height="12" class="djs-outline" style="fill: none;"/></g></g><g class="djs-group"><g class="djs-element djs-shape" data-element-id="Event_1glqjrm" style="display: block;" transform="matrix(1 0 0 1 212 652)"><g class="djs-visual"><circle cx="18" cy="18" r="18" style="stroke: black; stroke-width: 2px; fill: white; fill-opacity: 0.95;"/></g><rect class="djs-hit djs-hit-all" x="0" y="0" width="36" height="36" style="fill: none; stroke-opacity: 0; stroke: white; stroke-width: 15px;"/><rect x="-6" y="-6" width="48" height="48" class="djs-outline" style="fill: none;"/></g></g><g class="djs-group"><g class="djs-element djs-shape" data-element-id="Event_1glqjrm_label" style="display: block;" transform="matrix(1 0 0 1 191 695)"><g class="djs-visual"><text lineHeight="1.2" class="djs-label" style="font-family: Arial, sans-serif; font-size: 11px; font-weight: normal; fill: black;"><tspan x="0" y="9.899999999999999">Reklamní návrh</tspan></text></g><rect class="djs-hit djs-hit-all" x="0" y="0" width="78" height="14" style="fill: none; stroke-opacity: 0; stroke: white; stroke-width: 15px;"/><rect x="-6" y="-6" width="90" height="26" class="djs-outline" style="fill: none;"/></g></g><g class="djs-group"><g class="djs-element djs-shape" data-element-id="Activity_0yjxkwv" style="display: block;" transform="matrix(1 0 0 1 350 630)"><g class="djs-visual"><rect x="0" y="0" width="100" height="80" rx="10" ry="10" style="stroke: black; stroke-width: 2px; fill: white; fill-opacity: 0.95;"/><text lineHeight="1.2" class="djs-label" style="font-family: Arial, sans-serif; font-size: 12px; font-weight: normal; fill: black;"><tspan x="19.484375" y="29.200000000000003">Prezentace </tspan><tspan x="26.65625" y="43.6">reklamní </tspan><tspan x="28.984375" y="58">strategii</tspan></text></g><rect class="djs-hit djs-hit-all" x="0" y="0" width="100" height="80" style="fill: none; stroke-opacity: 0; stroke: white; stroke-width: 15px;"/><rect x="-6" y="-6" width="112" height="92" class="djs-outline" style="fill: none;"/></g></g><g class="djs-group"><g class="djs-element djs-shape" data-element-id="Gateway_171d47l" style="display: block;" transform="matrix(1 0 0 1 555 645)"><g class="djs-visual"><polygon points="25,0 50,25 25,50 0,25" style="stroke: black; stroke-width: 2px; fill: white; fill-opacity: 0.95;"/><path d="m 16,15 7.42857142857143,9.714285714285715 -7.42857142857143,9.714285714285715 3.428571428571429,0 5.714285714285715,-7.464228571428572 5.714285714285715,7.464228571428572 3.428571428571429,0 -7.42857142857143,-9.714285714285715 7.42857142857143,-9.714285714285715 -3.428571428571429,0 -5.714285714285715,7.464228571428572 -5.714285714285715,-7.464228571428572 -3.428571428571429,0 z" style="fill: black; stroke-width: 1px; stroke: black;"/></g><rect class="djs-hit djs-hit-all" x="0" y="0" width="50" height="50" style="fill: none; stroke-opacity: 0; stroke: white; stroke-width: 15px;"/><rect x="-6" y="-6" width="62" height="62" class="djs-outline" style="fill: none;"/></g></g><g class="djs-group"><g class="djs-element djs-shape" data-element-id="Gateway_171d47l_label" style="display: block;" transform="matrix(1 0 0 1 672 660)"><g class="djs-visual"><text lineHeight="1.2" class="djs-label" style="font-family: Arial, sans-serif; font-size: 11px; font-weight: normal; fill: black;"><tspan x="0" y="9.899999999999999">Rozhodnutí </tspan><tspan x="3.671875" y="23.099999999999998">manažerů</tspan></text></g><rect class="djs-hit djs-hit-all" x="0" y="0" width="57" height="27" style="fill: none; stroke-opacity: 0; stroke: white; stroke-width: 15px;"/><rect x="-6" y="-6" width="69" height="39" class="djs-outline" style="fill: none;"/></g></g><g class="djs-group"><g class="djs-element djs-shape" data-element-id="Activity_17f9o5b" style="display: block;" transform="matrix(1 0 0 1 670 510)"><g class="djs-visual"><rect x="0" y="0" width="100" height="80" rx="10" ry="10" style="stroke: black; stroke-width: 2px; fill: white; fill-opacity: 0.95;"/><text lineHeight="1.2" class="djs-label" style="font-family: Arial, sans-serif; font-size: 12px; font-weight: normal; fill: black;"><tspan x="26.3125" y="29.200000000000003">Zahájení </tspan><tspan x="26.65625" y="43.6">reklamní </tspan><tspan x="25.1484375" y="58">kampaně</tspan></text></g><rect class="djs-hit djs-hit-all" x="0" y="0" width="100" height="80" style="fill: none; stroke-opacity: 0; stroke: white; stroke-width: 15px;"/><rect x="-6" y="-6" width="112" height="92" class="djs-outline" style="fill: none;"/></g></g><g class="djs-group"><g class="djs-element djs-shape" data-element-id="Activity_13cnrkh" style="display: block;" transform="matrix(1 0 0 1 670 740)"><g class="djs-visual"><rect x="0" y="0" width="100" height="80" rx="10" ry="10" style="stroke: black; stroke-width: 2px; fill: white; fill-opacity: 0.95;"/><text lineHeight="1.2" class="djs-label" style="font-family: Arial, sans-serif; font-size: 12px; font-weight: normal; fill: black;"><tspan x="6.640625" y="43.599999999999994">Projekt neprošel</tspan></text></g><rect class="djs-hit djs-hit-all" x="0" y="0" width="100" height="80" style="fill: none; stroke-opacity: 0; stroke: white; stroke-width: 15px;"/><rect x="-6" y="-6" width="112" height="92" class="djs-outline" style="fill: none;"/></g></g><g class="djs-group"><g class="djs-element djs-shape" data-element-id="Event_0z0b0q1" style="display: block;" transform="matrix(1 0 0 1 1212 652)"><g class="djs-visual"><circle cx="18" cy="18" r="18" style="stroke: black; stroke-width: 4px; fill: white; fill-opacity: 0.95;"/></g><rect class="djs-hit djs-hit-all" x="0" y="0" width="36" height="36" style="fill: none; stroke-opacity: 0; stroke: white; stroke-width: 15px;"/><rect x="-6" y="-6" width="48" height="48" class="djs-outline" style="fill: none;"/></g></g><g class="djs-group"><g class="djs-element djs-shape" data-element-id="Event_0z0b0q1_label" style="display: block;" transform="matrix(1 0 0 1 1270 650)"><g class="djs-visual"><text lineHeight="1.2" class="djs-label" style="font-family: Arial, sans-serif; font-size: 11px; font-weight: normal; fill: black;"><tspan x="0" y="9.899999999999999">Ukončení </tspan><tspan x="2.1484375" y="23.099999999999998">reklamní </tspan><tspan x="0.609375" y="36.3">kampaně</tspan></text></g><rect class="djs-hit djs-hit-all" x="0" y="0" width="47" height="40" style="fill: none; stroke-opacity: 0; stroke: white; stroke-width: 15px;"/><rect x="-6" y="-6" width="59" height="52" class="djs-outline" style="fill: none;"/></g></g><g class="djs-group"><g class="djs-element djs-shape" data-element-id="Activity_0pehf6k" style="display: block;" transform="matrix(1 0 0 1 970 510)"><g class="djs-visual"><rect x="0" y="0" width="100" height="80" rx="10" ry="10" style="stroke: black; stroke-width: 2px; fill: white; fill-opacity: 0.95;"/><text lineHeight="1.2" class="djs-label" style="font-family: Arial, sans-serif; font-size: 12px; font-weight: normal; fill: black;"><tspan x="14.859375" y="36.4">Vyhodnocení </tspan><tspan x="26.65625" y="50.8">výsledků</tspan></text></g><rect class="djs-hit djs-hit-all" x="0" y="0" width="100" height="80" style="fill: none; stroke-opacity: 0; stroke: white; stroke-width: 15px;"/><rect x="-6" y="-6" width="112" height="92" class="djs-outline" style="fill: none;"/></g></g><g class="djs-group"><g class="djs-element djs-shape" data-element-id="Flow_0xu0il5_label" style="display: block;" transform="matrix(1 0 0 1 595 603)"><g class="djs-visual"><text lineHeight="1.2" class="djs-label" style="font-family: Arial, sans-serif; font-size: 11px; font-weight: normal; fill: black;"><tspan x="0" y="9.899999999999999">Schválení</tspan></text></g><rect class="djs-hit djs-hit-all" x="0" y="0" width="49" height="14" style="fill: none; stroke-opacity: 0; stroke: white; stroke-width: 15px;"/><rect x="-6" y="-6" width="61" height="26" class="djs-outline" style="fill: none;"/></g></g><g class="djs-group"><g class="djs-element djs-shape" data-element-id="Flow_0bkwwe5_label" style="display: block;" transform="matrix(1 0 0 1 595 735)"><g class="djs-visual"><text lineHeight="1.2" class="djs-label" style="font-family: Arial, sans-serif; font-size: 11px; font-weight: normal; fill: black;"><tspan x="0" y="9.899999999999999">Odmítnutí</tspan></text></g><rect class="djs-hit djs-hit-all" x="0" y="0" width="49" height="14" style="fill: none; stroke-opacity: 0; stroke: white; stroke-width: 15px;"/><rect x="-6" y="-6" width="61" height="26" class="djs-outline" style="fill: none;"/></g></g></g></g><g class="djs-group"><g class="djs-element djs-shape" data-element-id="Participant_0v9qeok" style="display: block;" transform="matrix(1 0 0 1 580 80)"><g class="djs-visual"><rect x="0" y="0" width="1010" height="340" rx="0" ry="0" style="stroke: black; stroke-width: 2px; fill: white; fill-opacity: 0.95;"/><polyline points="30,0 30,340 " style="fill: none; stroke: black; stroke-width: 2px;"/><text lineHeight="1.2" class="djs-label" style="font-family: Arial, sans-serif; font-size: 12px; font-weight: normal; fill: black;" transform="matrix(-1.83697e-16 -1 1 -1.83697e-16 0 340)"><tspan x="139.640625" y="18.6">IT oddělení</tspan></text></g><rect class="djs-hit djs-hit-click-stroke" x="0" y="0" width="1010" height="340" style="fill: none; stroke-opacity: 0; stroke: white; stroke-width: 15px;"/><rect class="djs-hit djs-hit-all" x="0" y="0" width="30" height="340" style="fill: none; stroke-opacity: 0; stroke: white; stroke-width: 15px;"/><rect x="-6" y="-6" width="1022" height="352" class="djs-outline" style="fill: none;"/></g><g class="djs-children"><g class="djs-group"><g class="djs-element djs-connection" data-element-id="Flow_0grhlan" style="display: block;"><g class="djs-visual"><path d="m  1390,290L1431,290 L1431,220 L1472,220 " style="fill: none; stroke-width: 2px; stroke: black; stroke-linejoin: round; marker-end: url('#sequenceflow-end-white-black-9261oujydjd5xoo52fz3alyfh');"/></g><polyline points="1390,290 1431,290 1431,220 1472,220 " class="djs-hit djs-hit-stroke" style="fill: none; stroke-opacity: 0; stroke: white; stroke-width: 15px;"/><rect x="1384" y="214" width="94" height="82" class="djs-outline" style="fill: none;"/></g></g><g class="djs-group"><g class="djs-element djs-connection" data-element-id="Flow_1h9vs0p" style="display: block;"><g class="djs-visual"><path d="m  1390,150L1431,150 L1431,220 L1472,220 " style="fill: none; stroke-width: 2px; stroke: black; stroke-linejoin: round; marker-end: url('#sequenceflow-end-white-black-9261oujydjd5xoo52fz3alyfh');"/></g><polyline points="1390,150 1431,150 1431,220 1472,220 " class="djs-hit djs-hit-stroke" style="fill: none; stroke-opacity: 0; stroke: white; stroke-width: 15px;"/><rect x="1384" y="144" width="94" height="82" class="djs-outline" style="fill: none;"/></g></g><g class="djs-group"><g class="djs-element djs-connection" data-element-id="Flow_0tikuyv" style="display: block;"><g class="djs-visual"><path d="m  1225,290L1290,290 " style="fill: none; stroke-width: 2px; stroke: black; stroke-linejoin: round; marker-end: url('#sequenceflow-end-white-black-9261oujydjd5xoo52fz3alyfh');"/></g><polyline points="1225,290 1290,290 " class="djs-hit djs-hit-stroke" style="fill: none; stroke-opacity: 0; stroke: white; stroke-width: 15px;"/><rect x="1219" y="284" width="77" height="12" class="djs-outline" style="fill: none;"/></g></g><g class="djs-group"><g class="djs-element djs-connection" data-element-id="Flow_10dmlp1" style="display: block;"><g class="djs-visual"><path d="m  1200,265L1200,150 L1290,150 " style="fill: none; stroke-width: 2px; stroke: black; stroke-linejoin: round; marker-end: url('#sequenceflow-end-white-black-9261oujydjd5xoo52fz3alyfh');"/></g><polyline points="1200,265 1200,150 1290,150 " class="djs-hit djs-hit-stroke" style="fill: none; stroke-opacity: 0; stroke: white; stroke-width: 15px;"/><rect x="1194" y="144" width="102" height="127" class="djs-outline" style="fill: none;"/></g></g><g class="djs-group"><g class="djs-element djs-connection" data-element-id="Flow_00q20sh" style="display: block;"><g class="djs-visual"><path d="m  1130,290L1175,290 " style="fill: none; stroke-width: 2px; stroke: black; stroke-linejoin: round; marker-end: url('#sequenceflow-end-white-black-9261oujydjd5xoo52fz3alyfh');"/></g><polyline points="1130,290 1175,290 " class="djs-hit djs-hit-stroke" style="fill: none; stroke-opacity: 0; stroke: white; stroke-width: 15px;"/><rect x="1124" y="284" width="57" height="12" class="djs-outline" style="fill: none;"/></g></g><g class="djs-group"><g class="djs-element djs-connection" data-element-id="Flow_1mij7va" style="display: block;"><g class="djs-visual"><path d="m  988,290L1030,290 " style="fill: none; stroke-width: 2px; stroke: black; stroke-linejoin: round; marker-end: url('#sequenceflow-end-white-black-9261oujydjd5xoo52fz3alyfh');"/></g><polyline points="988,290 1030,290 " class="djs-hit djs-hit-stroke" style="fill: none; stroke-opacity: 0; stroke: white; stroke-width: 15px;"/><rect x="982" y="284" width="54" height="12" class="djs-outline" style="fill: none;"/></g></g><g class="djs-group"><g class="djs-element djs-connection" data-element-id="Flow_06rnlob" style="display: block;"><g class="djs-visual"><path d="m  890,290L952,290 " style="fill: none; stroke-width: 2px; stroke: black; stroke-linejoin: round; marker-end: url('#sequenceflow-end-white-black-9261oujydjd5xoo52fz3alyfh');"/></g><polyline points="890,290 952,290 " class="djs-hit djs-hit-stroke" style="fill: none; stroke-opacity: 0; stroke: white; stroke-width: 15px;"/><rect x="884" y="284" width="74" height="12" class="djs-outline" style="fill: none;"/></g></g><g class="djs-group"><g class="djs-element djs-connection" data-element-id="Flow_01zp7hg" style="display: block;"><g class="djs-visual"><path d="m  738,290L790,290 " style="fill: none; stroke-width: 2px; stroke: black; stroke-linejoin: round; marker-end: url('#sequenceflow-end-white-black-9261oujydjd5xoo52fz3alyfh');"/></g><polyline points="738,290 790,290 " class="djs-hit djs-hit-stroke" style="fill: none; stroke-opacity: 0; stroke: white; stroke-width: 15px;"/><rect x="732" y="284" width="64" height="12" class="djs-outline" style="fill: none;"/></g></g><g class="djs-group"><g class="djs-element djs-shape" data-element-id="Event_1c22p2b" style="display: block;" transform="matrix(1 0 0 1 702 272)"><g class="djs-visual"><circle cx="18" cy="18" r="18" style="stroke: black; stroke-width: 1px; fill: white; fill-opacity: 0.95;"/><circle cx="18" cy="18" r="15" style="stroke: black; stroke-width: 1px; fill: none;"/><path d="m 8.459999999999999,11.34 l 0,12.6 l 18.900000000000002,0 l 0,-12.6 z l 9.450000000000001,5.4 l 9.450000000000001,-5.4" style="fill: white; stroke-width: 1px; stroke: black;"/></g><rect class="djs-hit djs-hit-all" x="0" y="0" width="36" height="36" style="fill: none; stroke-opacity: 0; stroke: white; stroke-width: 15px;"/><rect x="-6" y="-6" width="48" height="48" class="djs-outline" style="fill: none;"/></g></g><g class="djs-group"><g class="djs-element djs-shape" data-element-id="Event_1c22p2b_label" style="display: block;" transform="matrix(1 0 0 1 680 220)"><g class="djs-visual"><text lineHeight="1.2" class="djs-label" style="font-family: Arial, sans-serif; font-size: 11px; font-weight: normal; fill: black;"><tspan x="0" y="9.899999999999999">Obdržení zprávy </tspan><tspan x="15.21875" y="23.099999999999998">o zahájení </tspan><tspan x="17.96875" y="36.3">kampaně</tspan></text></g><rect class="djs-hit djs-hit-all" x="0" y="0" width="82" height="40" style="fill: none; stroke-opacity: 0; stroke: white; stroke-width: 15px;"/><rect x="-6" y="-6" width="94" height="52" class="djs-outline" style="fill: none;"/></g></g><g class="djs-group"><g class="djs-element djs-shape" data-element-id="Activity_08ajmb6" style="display: block;" transform="matrix(1 0 0 1 790 250)"><g class="djs-visual"><rect x="0" y="0" width="100" height="80" rx="10" ry="10" style="stroke: black; stroke-width: 2px; fill: white; fill-opacity: 0.95;"/><text lineHeight="1.2" class="djs-label" style="font-family: Arial, sans-serif; font-size: 12px; font-weight: normal; fill: black;"><tspan x="14.9765625" y="36.4">Seznámení s </tspan><tspan x="26.984375" y="50.8">zadáním</tspan></text></g><rect class="djs-hit djs-hit-all" x="0" y="0" width="100" height="80" style="fill: none; stroke-opacity: 0; stroke: white; stroke-width: 15px;"/><rect x="-6" y="-6" width="112" height="92" class="djs-outline" style="fill: none;"/></g></g><g class="djs-group"><g class="djs-element djs-shape" data-element-id="Event_0fh39e6" style="display: block;" transform="matrix(1 0 0 1 952 272)"><g class="djs-visual"><circle cx="18" cy="18" r="18" style="stroke: black; stroke-width: 1px; fill: white; fill-opacity: 0.95;"/><circle cx="18" cy="18" r="15" style="stroke: black; stroke-width: 1px; fill: none;"/><circle cx="18" cy="18" r="11" style="stroke: black; stroke-width: 2px; fill: white;"/><path d="M 18,18 l 2.25,-7.5 m -2.25,7.5 l 5.25,1.5 " style="fill: none; stroke-width: 2px; stroke: black; stroke-linecap: square;"/><path d="M 18,18 m 0,7.5 l -0,2.25 " transform="rotate(0,18,18)" style="fill: none; stroke-width: 1px; stroke: black; stroke-linecap: square;"/><path d="M 18,18 m 0,7.5 l -0,2.25 " transform="rotate(30,18,18)" style="fill: none; stroke-width: 1px; stroke: black; stroke-linecap: square;"/><path d="M 18,18 m 0,7.5 l -0,2.25 " transform="rotate(60,18,18)" style="fill: none; stroke-width: 1px; stroke: black; stroke-linecap: square;"/><path d="M 18,18 m 0,7.5 l -0,2.25 " transform="rotate(90,18,18)" style="fill: none; stroke-width: 1px; stroke: black; stroke-linecap: square;"/><path d="M 18,18 m 0,7.5 l -0,2.25 " transform="rotate(120,18,18)" style="fill: none; stroke-width: 1px; stroke: black; stroke-linecap: square;"/><path d="M 18,18 m 0,7.5 l -0,2.25 " transform="rotate(150,18,18)" style="fill: none; stroke-width: 1px; stroke: black; stroke-linecap: square;"/><path d="M 18,18 m 0,7.5 l -0,2.25 " transform="rotate(180,18,18)" style="fill: none; stroke-width: 1px; stroke: black; stroke-linecap: square;"/><path d="M 18,18 m 0,7.5 l -0,2.25 " transform="rotate(210,18,18)" style="fill: none; stroke-width: 1px; stroke: black; stroke-linecap: square;"/><path d="M 18,18 m 0,7.5 l -0,2.25 " transform="rotate(240,18,18)" style="fill: none; stroke-width: 1px; stroke: black; stroke-linecap: square;"/><path d="M 18,18 m 0,7.5 l -0,2.25 " transform="rotate(270,18,18)" style="fill: none; stroke-width: 1px; stroke: black; stroke-linecap: square;"/><path d="M 18,18 m 0,7.5 l -0,2.25 " transform="rotate(300,18,18)" style="fill: none; stroke-width: 1px; stroke: black; stroke-linecap: square;"/><path d="M 18,18 m 0,7.5 l -0,2.25 " transform="rotate(330,18,18)" style="fill: none; stroke-width: 1px; stroke: black; stroke-linecap: square;"/></g><rect class="djs-hit djs-hit-all" x="0" y="0" width="36" height="36" style="fill: none; stroke-opacity: 0; stroke: white; stroke-width: 15px;"/><rect x="-6" y="-6" width="48" height="48" class="djs-outline" style="fill: none;"/></g></g><g class="djs-group"><g class="djs-element djs-shape" data-element-id="Event_0fh39e6_label" style="display: block;" transform="matrix(1 0 0 1 952 315)"><g class="djs-visual"><text lineHeight="1.2" class="djs-label" style="font-family: Arial, sans-serif; font-size: 11px; font-weight: normal; fill: black;"><tspan x="0" y="9.899999999999999">2-3 dny</tspan></text></g><rect class="djs-hit djs-hit-all" x="0" y="0" width="38" height="14" style="fill: none; stroke-opacity: 0; stroke: white; stroke-width: 15px;"/><rect x="-6" y="-6" width="50" height="26" class="djs-outline" style="fill: none;"/></g></g><g class="djs-group"><g class="djs-element djs-shape" data-element-id="Activity_03udkuo" style="display: block;" transform="matrix(1 0 0 1 1030 250)"><g class="djs-visual"><rect x="0" y="0" width="100" height="80" rx="10" ry="10" style="stroke: black; stroke-width: 2px; fill: white; fill-opacity: 0.95;"/><text lineHeight="1.2" class="djs-label" style="font-family: Arial, sans-serif; font-size: 12px; font-weight: normal; fill: black;"><tspan x="27.15625" y="36.4">Příprava </tspan><tspan x="28.9765625" y="50.8">designu</tspan></text></g><rect class="djs-hit djs-hit-all" x="0" y="0" width="100" height="80" style="fill: none; stroke-opacity: 0; stroke: white; stroke-width: 15px;"/><rect x="-6" y="-6" width="112" height="92" class="djs-outline" style="fill: none;"/></g></g><g class="djs-group"><g class="djs-element djs-shape" data-element-id="Activity_1jzr1ol" style="display: block;" transform="matrix(1 0 0 1 1290 110)"><g class="djs-visual"><rect x="0" y="0" width="100" height="80" rx="10" ry="10" style="stroke: black; stroke-width: 2px; fill: white; fill-opacity: 0.95;"/><text lineHeight="1.2" class="djs-label" style="font-family: Arial, sans-serif; font-size: 12px; font-weight: normal; fill: black;"><tspan x="21.3125" y="22">Rozesílání </tspan><tspan x="35.328125" y="36.4">zpráv </tspan><tspan x="13.3203125" y="50.8">zákazníkům z </tspan><tspan x="37.65625" y="65.19999999999999">DBS</tspan></text></g><rect class="djs-hit djs-hit-all" x="0" y="0" width="100" height="80" style="fill: none; stroke-opacity: 0; stroke: white; stroke-width: 15px;"/><rect x="-6" y="-6" width="112" height="92" class="djs-outline" style="fill: none;"/></g></g><g class="djs-group"><g class="djs-element djs-shape" data-element-id="Activity_00j3mvh" style="display: block;" transform="matrix(1 0 0 1 1290 250)"><g class="djs-visual"><rect x="0" y="0" width="100" height="80" rx="10" ry="10" style="stroke: black; stroke-width: 2px; fill: white; fill-opacity: 0.95;"/><text lineHeight="1.2" class="djs-label" style="font-family: Arial, sans-serif; font-size: 12px; font-weight: normal; fill: black;"><tspan x="14.6484375" y="22">Rozesílaní e-</tspan><tspan x="35.65625" y="36.4">mailů </tspan><tspan x="13.3203125" y="50.8">zákazníkům z </tspan><tspan x="37.65625" y="65.19999999999999">DBS</tspan></text></g><rect class="djs-hit djs-hit-all" x="0" y="0" width="100" height="80" style="fill: none; stroke-opacity: 0; stroke: white; stroke-width: 15px;"/><rect x="-6" y="-6" width="112" height="92" class="djs-outline" style="fill: none;"/></g></g><g class="djs-group"><g class="djs-element djs-shape" data-element-id="Gateway_08eahxc" style="display: block;" transform="matrix(1 0 0 1 1175 265)"><g class="djs-visual"><polygon points="25,0 50,25 25,50 0,25" style="stroke: black; stroke-width: 2px; fill: white; fill-opacity: 0.95;"/><path d="m 16,15 7.42857142857143,9.714285714285715 -7.42857142857143,9.714285714285715 3.428571428571429,0 5.714285714285715,-7.464228571428572 5.714285714285715,7.464228571428572 3.428571428571429,0 -7.42857142857143,-9.714285714285715 7.42857142857143,-9.714285714285715 -3.428571428571429,0 -5.714285714285715,7.464228571428572 -5.714285714285715,-7.464228571428572 -3.428571428571429,0 z" style="fill: black; stroke-width: 1px; stroke: black;"/></g><rect class="djs-hit djs-hit-all" x="0" y="0" width="50" height="50" style="fill: none; stroke-opacity: 0; stroke: white; stroke-width: 15px;"/><rect x="-6" y="-6" width="62" height="62" class="djs-outline" style="fill: none;"/></g></g><g class="djs-group"><g class="djs-element djs-shape" data-element-id="Gateway_08eahxc_label" style="display: block;" transform="matrix(1 0 0 1 1139 322)"><g class="djs-visual"><text lineHeight="1.2" class="djs-label" style="font-family: Arial, sans-serif; font-size: 11px; font-weight: normal; fill: black;"><tspan x="0" y="9.899999999999999">Způsob oslovení </tspan><tspan x="12.53125" y="23.099999999999998">zákazníků?</tspan></text></g><rect class="djs-hit djs-hit-all" x="0" y="0" width="81" height="27" style="fill: none; stroke-opacity: 0; stroke: white; stroke-width: 15px;"/><rect x="-6" y="-6" width="93" height="39" class="djs-outline" style="fill: none;"/></g></g><g class="djs-group"><g class="djs-element djs-shape" data-element-id="Event_1iboi16" style="display: block;" transform="matrix(1 0 0 1 1472 202)"><g class="djs-visual"><circle cx="18" cy="18" r="18" style="stroke: black; stroke-width: 4px; fill: white; fill-opacity: 0.95;"/><circle cx="18" cy="18" r="10" style="stroke: black; stroke-width: 4px; fill: black;"/></g><rect class="djs-hit djs-hit-all" x="0" y="0" width="36" height="36" style="fill: none; stroke-opacity: 0; stroke: white; stroke-width: 15px;"/><rect x="-6" y="-6" width="48" height="48" class="djs-outline" style="fill: none;"/></g></g><g class="djs-group"><g class="djs-element djs-shape" data-element-id="Flow_10dmlp1_label" style="display: block;" transform="matrix(1 0 0 1 1203 205)"><g class="djs-visual"><text lineHeight="1.2" class="djs-label" style="font-family: Arial, sans-serif; font-size: 11px; font-weight: normal; fill: black;"><tspan x="0" y="9.899999999999999">SMS</tspan></text></g><rect class="djs-hit djs-hit-all" x="0" y="0" width="24" height="14" style="fill: none; stroke-opacity: 0; stroke: white; stroke-width: 15px;"/><rect x="-6" y="-6" width="36" height="26" class="djs-outline" style="fill: none;"/></g></g><g class="djs-group"><g class="djs-element djs-shape" data-element-id="Flow_0tikuyv_label" style="display: block;" transform="matrix(1 0 0 1 1242 272)"><g class="djs-visual"><text lineHeight="1.2" class="djs-label" style="font-family: Arial, sans-serif; font-size: 11px; font-weight: normal; fill: black;"><tspan x="0" y="9.899999999999999">E-mail</tspan></text></g><rect class="djs-hit djs-hit-all" x="0" y="0" width="32" height="14" style="fill: none; stroke-opacity: 0; stroke: white; stroke-width: 15px;"/><rect x="-6" y="-6" width="44" height="26" class="djs-outline" style="fill: none;"/></g></g></g></g><g class="djs-group"><g class="djs-element djs-shape" data-element-id="Participant_0dulfvs" style="display: block;" transform="matrix(1 0 0 1 560 880)"><g class="djs-visual"><rect x="0" y="0" width="902" height="250" rx="0" ry="0" style="stroke: black; stroke-width: 2px; fill: white; fill-opacity: 0.95;"/><polyline points="30,0 30,250 " style="fill: none; stroke: black; stroke-width: 2px;"/><text lineHeight="1.2" class="djs-label" style="font-family: Arial, sans-serif; font-size: 12px; font-weight: normal; fill: black;" transform="matrix(-1.83697e-16 -1 1 -1.83697e-16 0 250)"><tspan x="98.3125" y="18.6">Brigádníci</tspan></text></g><rect class="djs-hit djs-hit-click-stroke" x="0" y="0" width="902" height="250" style="fill: none; stroke-opacity: 0; stroke: white; stroke-width: 15px;"/><rect class="djs-hit djs-hit-all" x="0" y="0" width="30" height="250" style="fill: none; stroke-opacity: 0; stroke: white; stroke-width: 15px;"/><rect x="-6" y="-6" width="914" height="262" class="djs-outline" style="fill: none;"/></g><g class="djs-children"><g class="djs-group"><g class="djs-element djs-connection" data-element-id="Flow_1bacbx1" style="display: block;"><g class="djs-visual"><path d="m  938,1010L980,1010 " style="fill: none; stroke-width: 2px; stroke: black; stroke-linejoin: round; marker-end: url('#sequenceflow-end-white-black-9261oujydjd5xoo52fz3alyfh');"/></g><polyline points="938,1010 980,1010 " class="djs-hit djs-hit-stroke" style="fill: none; stroke-opacity: 0; stroke: white; stroke-width: 15px;"/><rect x="932" y="1004" width="54" height="12" class="djs-outline" style="fill: none;"/></g></g><g class="djs-group"><g class="djs-element djs-connection" data-element-id="Flow_0s1av5x" style="display: block;"><g class="djs-visual"><path d="m  860,1010L902,1010 " style="fill: none; stroke-width: 2px; stroke: black; stroke-linejoin: round; marker-end: url('#sequenceflow-end-white-black-9261oujydjd5xoo52fz3alyfh');"/></g><polyline points="860,1010 902,1010 " class="djs-hit djs-hit-stroke" style="fill: none; stroke-opacity: 0; stroke: white; stroke-width: 15px;"/><rect x="854" y="1004" width="54" height="12" class="djs-outline" style="fill: none;"/></g></g><g class="djs-group"><g class="djs-element djs-connection" data-element-id="Flow_1w51836" style="display: block;"><g class="djs-visual"><path d="m  708,1010L760,1010 " style="fill: none; stroke-width: 2px; stroke: black; stroke-linejoin: round; marker-end: url('#sequenceflow-end-white-black-9261oujydjd5xoo52fz3alyfh');"/></g><polyline points="708,1010 760,1010 " class="djs-hit djs-hit-stroke" style="fill: none; stroke-opacity: 0; stroke: white; stroke-width: 15px;"/><rect x="702" y="1004" width="64" height="12" class="djs-outline" style="fill: none;"/></g></g><g class="djs-group"><g class="djs-element djs-shape" data-element-id="Event_1l1dbvn" style="display: block;" transform="matrix(1 0 0 1 672 992)"><g class="djs-visual"><circle cx="18" cy="18" r="18" style="stroke: black; stroke-width: 1px; fill: white; fill-opacity: 0.95;"/><circle cx="18" cy="18" r="15" style="stroke: black; stroke-width: 1px; fill: none;"/><path d="m 8.459999999999999,11.34 l 0,12.6 l 18.900000000000002,0 l 0,-12.6 z l 9.450000000000001,5.4 l 9.450000000000001,-5.4" style="fill: white; stroke-width: 1px; stroke: black;"/></g><rect class="djs-hit djs-hit-all" x="0" y="0" width="36" height="36" style="fill: none; stroke-opacity: 0; stroke: white; stroke-width: 15px;"/><rect x="-6" y="-6" width="48" height="48" class="djs-outline" style="fill: none;"/></g></g><g class="djs-group"><g class="djs-element djs-shape" data-element-id="Event_1l1dbvn_label" style="display: block;" transform="matrix(1 0 0 1 650 1035)"><g class="djs-visual"><text lineHeight="1.2" class="djs-label" style="font-family: Arial, sans-serif; font-size: 11px; font-weight: normal; fill: black;"><tspan x="0" y="9.899999999999999">Obdržení zprávy </tspan><tspan x="15.21875" y="23.099999999999998">o zahájení </tspan><tspan x="17.96875" y="36.3">kampaně</tspan></text></g><rect class="djs-hit djs-hit-all" x="0" y="0" width="82" height="40" style="fill: none; stroke-opacity: 0; stroke: white; stroke-width: 15px;"/><rect x="-6" y="-6" width="94" height="52" class="djs-outline" style="fill: none;"/></g></g><g class="djs-group"><g class="djs-element djs-shape" data-element-id="Activity_1iwxdup" style="display: block;" transform="matrix(1 0 0 1 760 970)"><g class="djs-visual"><rect x="0" y="0" width="100" height="80" rx="10" ry="10" style="stroke: black; stroke-width: 2px; fill: white; fill-opacity: 0.95;"/><text lineHeight="1.2" class="djs-label" style="font-family: Arial, sans-serif; font-size: 12px; font-weight: normal; fill: black;"><tspan x="14.9765625" y="36.4">Seznámení s </tspan><tspan x="26.984375" y="50.8">zadáním</tspan></text></g><rect class="djs-hit djs-hit-all" x="0" y="0" width="100" height="80" style="fill: none; stroke-opacity: 0; stroke: white; stroke-width: 15px;"/><rect x="-6" y="-6" width="112" height="92" class="djs-outline" style="fill: none;"/></g></g><g class="djs-group"><g class="djs-element djs-shape" data-element-id="Event_1u23uxm" style="display: block;" transform="matrix(1 0 0 1 902 992)"><g class="djs-visual"><circle cx="18" cy="18" r="18" style="stroke: black; stroke-width: 1px; fill: white; fill-opacity: 0.95;"/><circle cx="18" cy="18" r="15" style="stroke: black; stroke-width: 1px; fill: none;"/><circle cx="18" cy="18" r="11" style="stroke: black; stroke-width: 2px; fill: white;"/><path d="M 18,18 l 2.25,-7.5 m -2.25,7.5 l 5.25,1.5 " style="fill: none; stroke-width: 2px; stroke: black; stroke-linecap: square;"/><path d="M 18,18 m 0,7.5 l -0,2.25 " transform="rotate(0,18,18)" style="fill: none; stroke-width: 1px; stroke: black; stroke-linecap: square;"/><path d="M 18,18 m 0,7.5 l -0,2.25 " transform="rotate(30,18,18)" style="fill: none; stroke-width: 1px; stroke: black; stroke-linecap: square;"/><path d="M 18,18 m 0,7.5 l -0,2.25 " transform="rotate(60,18,18)" style="fill: none; stroke-width: 1px; stroke: black; stroke-linecap: square;"/><path d="M 18,18 m 0,7.5 l -0,2.25 " transform="rotate(90,18,18)" style="fill: none; stroke-width: 1px; stroke: black; stroke-linecap: square;"/><path d="M 18,18 m 0,7.5 l -0,2.25 " transform="rotate(120,18,18)" style="fill: none; stroke-width: 1px; stroke: black; stroke-linecap: square;"/><path d="M 18,18 m 0,7.5 l -0,2.25 " transform="rotate(150,18,18)" style="fill: none; stroke-width: 1px; stroke: black; stroke-linecap: square;"/><path d="M 18,18 m 0,7.5 l -0,2.25 " transform="rotate(180,18,18)" style="fill: none; stroke-width: 1px; stroke: black; stroke-linecap: square;"/><path d="M 18,18 m 0,7.5 l -0,2.25 " transform="rotate(210,18,18)" style="fill: none; stroke-width: 1px; stroke: black; stroke-linecap: square;"/><path d="M 18,18 m 0,7.5 l -0,2.25 " transform="rotate(240,18,18)" style="fill: none; stroke-width: 1px; stroke: black; stroke-linecap: square;"/><path d="M 18,18 m 0,7.5 l -0,2.25 " transform="rotate(270,18,18)" style="fill: none; stroke-width: 1px; stroke: black; stroke-linecap: square;"/><path d="M 18,18 m 0,7.5 l -0,2.25 " transform="rotate(300,18,18)" style="fill: none; stroke-width: 1px; stroke: black; stroke-linecap: square;"/><path d="M 18,18 m 0,7.5 l -0,2.25 " transform="rotate(330,18,18)" style="fill: none; stroke-width: 1px; stroke: black; stroke-linecap: square;"/></g><rect class="djs-hit djs-hit-all" x="0" y="0" width="36" height="36" style="fill: none; stroke-opacity: 0; stroke: white; stroke-width: 15px;"/><rect x="-6" y="-6" width="48" height="48" class="djs-outline" style="fill: none;"/></g></g><g class="djs-group"><g class="djs-element djs-shape" data-element-id="Event_1u23uxm_label" style="display: block;" transform="matrix(1 0 0 1 894 1035)"><g class="djs-visual"><text lineHeight="1.2" class="djs-label" style="font-family: Arial, sans-serif; font-size: 11px; font-weight: normal; fill: black;"><tspan x="0" y="9.899999999999999">1-2 hodiny</tspan></text></g><rect class="djs-hit djs-hit-all" x="0" y="0" width="52" height="14" style="fill: none; stroke-opacity: 0; stroke: white; stroke-width: 15px;"/><rect x="-6" y="-6" width="64" height="26" class="djs-outline" style="fill: none;"/></g></g><g class="djs-group"><g class="djs-element djs-shape" data-element-id="Activity_11q4juf" style="display: block;" transform="matrix(1 0 0 1 980 970)"><g class="djs-visual"><rect x="0" y="0" width="100" height="80" rx="10" ry="10" style="stroke: black; stroke-width: 2px; fill: white; fill-opacity: 0.95;"/><text lineHeight="1.2" class="djs-label" style="font-family: Arial, sans-serif; font-size: 12px; font-weight: normal; fill: black;"><tspan x="5.640625" y="43.599999999999994">Distribuce letáků</tspan></text></g><rect class="djs-hit djs-hit-all" x="0" y="0" width="100" height="80" style="fill: none; stroke-opacity: 0; stroke: white; stroke-width: 15px;"/><rect x="-6" y="-6" width="112" height="92" class="djs-outline" style="fill: none;"/></g></g></g></g><g class="djs-group"><g class="djs-element djs-connection" data-element-id="Flow_09pc326" style="display: block;"><g class="djs-visual"><path d="m  720,510L720,308 " style="fill: none; stroke-width: 1.5px; stroke: black; marker-end: url('#messageflow-end-white-black-9261oujydjd5xoo52fz3alyfh'); marker-start: url('#messageflow-start-white-black-9261oujydjd5xoo52fz3alyfh'); stroke-dasharray: 10, 12; stroke-linecap: round; stroke-linejoin: round;"/></g><polyline points="720,510 720,308 " class="djs-hit djs-hit-stroke" style="fill: none; stroke-opacity: 0; stroke: white; stroke-width: 15px;"/><rect x="714" y="302" width="12" height="214" class="djs-outline" style="fill: none;"/></g></g><g class="djs-group"><g class="djs-element djs-connection" data-element-id="Flow_1qxoiv4" style="display: block;"><g class="djs-visual"><path d="m  1340,330L1340,390 L1030,390 L1030,510 " style="fill: none; stroke-width: 1.5px; stroke: black; marker-end: url('#messageflow-end-white-black-9261oujydjd5xoo52fz3alyfh'); marker-start: url('#messageflow-start-white-black-9261oujydjd5xoo52fz3alyfh'); stroke-dasharray: 10, 12; stroke-linecap: round; stroke-linejoin: round;"/></g><polyline points="1340,330 1340,390 1030,390 1030,510 " class="djs-hit djs-hit-stroke" style="fill: none; stroke-opacity: 0; stroke: white; stroke-width: 15px;"/><rect x="1024" y="324" width="322" height="192" class="djs-outline" style="fill: none;"/></g></g><g class="djs-group"><g class="djs-element djs-connection" data-element-id="Flow_0jaq1m0" style="display: block;"><g class="djs-visual"><path d="m  1290,176L1240,176 L1240,350 L1010,350 L1010,510 " style="fill: none; stroke-width: 1.5px; stroke: black; marker-end: url('#messageflow-end-white-black-9261oujydjd5xoo52fz3alyfh'); marker-start: url('#messageflow-start-white-black-9261oujydjd5xoo52fz3alyfh'); stroke-dasharray: 10, 12; stroke-linecap: round; stroke-linejoin: round;"/></g><polyline points="1290,176 1240,176 1240,350 1010,350 1010,510 " class="djs-hit djs-hit-stroke" style="fill: none; stroke-opacity: 0; stroke: white; stroke-width: 15px;"/><rect x="1004" y="170" width="292" height="346" class="djs-outline" style="fill: none;"/></g></g><g class="djs-group"><g class="djs-element djs-connection" data-element-id="Flow_0ti99z2" style="display: block;"><g class="djs-visual"><path d="m  670,570L650,570 L650,1010 L672,1010 " style="fill: none; stroke-width: 1.5px; stroke: black; marker-end: url('#messageflow-end-white-black-9261oujydjd5xoo52fz3alyfh'); marker-start: url('#messageflow-start-white-black-9261oujydjd5xoo52fz3alyfh'); stroke-dasharray: 10, 12; stroke-linecap: round; stroke-linejoin: round;"/></g><polyline points="670,570 650,570 650,1010 672,1010 " class="djs-hit djs-hit-stroke" style="fill: none; stroke-opacity: 0; stroke: white; stroke-width: 15px;"/><rect x="644" y="564" width="34" height="452" class="djs-outline" style="fill: none;"/></g></g><g class="djs-group"><g class="djs-element djs-connection" data-element-id="Flow_0o4iml9" style="display: block;"><g class="djs-visual"><path d="m  1030,970L1030,590 " style="fill: none; stroke-width: 1.5px; stroke: black; marker-end: url('#messageflow-end-white-black-9261oujydjd5xoo52fz3alyfh'); marker-start: url('#messageflow-start-white-black-9261oujydjd5xoo52fz3alyfh'); stroke-dasharray: 10, 12; stroke-linecap: round; stroke-linejoin: round;"/></g><polyline points="1030,970 1030,590 " class="djs-hit djs-hit-stroke" style="fill: none; stroke-opacity: 0; stroke: white; stroke-width: 15px;"/><rect x="1024" y="584" width="12" height="392" class="djs-outline" style="fill: none;"/></g></g></svg>